<?xml version="1.0" encoding="UTF-8"?>
<svg xmlns="http://www.w3.org/2000/svg" xmlns:xlink="http://www.w3.org/1999/xlink" width="15px" height="15px" viewBox="0 0 15 15" version="1.1">
<g id="surface1">
<path style=" stroke:none;fill-rule:nonzero;fill:rgb(0%,0%,0%);fill-opacity:1;" d="M 7.109375 0.9375 C 6.089844 1.125 5.316406 1.828125 5.039062 2.816406 C 4.722656 3.960938 5.328125 5.25 6.425781 5.757812 C 6.816406 5.9375 7.054688 5.984375 7.5 5.984375 C 7.945312 5.984375 8.183594 5.9375 8.574219 5.757812 C 9.5 5.328125 10.101562 4.328125 10.039062 3.3125 C 9.957031 1.996094 8.902344 0.960938 7.585938 0.921875 C 7.402344 0.917969 7.1875 0.921875 7.109375 0.9375 Z M 7.847656 1.976562 C 8.648438 2.167969 9.179688 3.015625 8.980469 3.792969 C 8.871094 4.210938 8.601562 4.574219 8.261719 4.765625 C 8.054688 4.882812 7.710938 4.980469 7.5 4.980469 C 7.289062 4.980469 6.945312 4.882812 6.738281 4.765625 C 6.398438 4.574219 6.128906 4.210938 6.019531 3.792969 C 5.898438 3.3125 6.058594 2.757812 6.425781 2.390625 C 6.8125 2.007812 7.328125 1.855469 7.847656 1.976562 Z M 7.847656 1.976562 "/>
<path style=" stroke:none;fill-rule:nonzero;fill:rgb(0%,0%,0%);fill-opacity:1;" d="M 5.773438 7.054688 C 5.269531 7.167969 4.734375 7.4375 4.355469 7.789062 C 3.980469 8.140625 3.636719 8.707031 3.515625 9.199219 C 3.414062 9.601562 3.394531 10.058594 3.402344 11.929688 C 3.414062 13.597656 3.417969 13.703125 3.46875 13.808594 C 3.539062 13.949219 3.710938 14.066406 3.875 14.082031 C 4.136719 14.109375 4.375 13.921875 4.429688 13.640625 C 4.4375 13.574219 4.449219 12.652344 4.453125 11.585938 C 4.453125 9.726562 4.457031 9.644531 4.515625 9.433594 C 4.652344 8.914062 5.015625 8.476562 5.5 8.238281 C 5.902344 8.039062 5.835938 8.042969 7.5 8.042969 C 8.902344 8.042969 9.019531 8.046875 9.171875 8.09375 C 9.707031 8.28125 10.074219 8.578125 10.335938 9.058594 C 10.539062 9.414062 10.527344 9.320312 10.546875 11.617188 C 10.566406 13.902344 10.550781 13.773438 10.742188 13.949219 C 10.902344 14.101562 11.09375 14.132812 11.292969 14.03125 C 11.449219 13.953125 11.539062 13.835938 11.570312 13.648438 C 11.609375 13.457031 11.609375 10.203125 11.578125 9.765625 C 11.539062 9.34375 11.449219 9.015625 11.292969 8.679688 C 10.972656 8.011719 10.449219 7.515625 9.765625 7.230469 C 9.238281 7.011719 9.148438 7 7.484375 7.007812 C 6.191406 7.007812 5.992188 7.011719 5.773438 7.054688 Z M 5.773438 7.054688 "/>
<path style=" stroke:none;fill-rule:nonzero;fill:rgb(0%,0%,0%);fill-opacity:1;" d="M 7.269531 9.644531 C 7.1875 9.6875 7.125 9.746094 7.070312 9.839844 C 6.996094 9.960938 6.992188 10 6.976562 10.386719 L 6.96875 10.804688 L 6.554688 10.816406 C 6.175781 10.828125 6.125 10.835938 6.007812 10.902344 C 5.671875 11.078125 5.660156 11.558594 5.976562 11.765625 C 6.089844 11.839844 6.117188 11.84375 6.527344 11.859375 L 6.96875 11.875 L 6.976562 12.285156 C 6.992188 12.660156 6.996094 12.714844 7.066406 12.832031 C 7.257812 13.179688 7.742188 13.179688 7.933594 12.832031 C 8.003906 12.714844 8.007812 12.660156 8.023438 12.285156 L 8.03125 11.875 L 8.472656 11.859375 C 8.882812 11.84375 8.910156 11.839844 9.023438 11.765625 C 9.339844 11.558594 9.328125 11.078125 8.992188 10.902344 C 8.875 10.835938 8.824219 10.828125 8.445312 10.816406 L 8.03125 10.804688 L 8.023438 10.386719 C 8.007812 10 8.003906 9.960938 7.929688 9.839844 C 7.792969 9.601562 7.519531 9.515625 7.269531 9.644531 Z M 7.269531 9.644531 "/>
</g>
</svg>
